#N canvas 60 60 800 740 12;
#X obj 40 40 loadbang;
#X obj 40 90 metro 1500;
#X floatatom 170 50 7 0 0 0 - - - 0;
#X obj 40 140 random 5;
#X obj 40 180 route 0 1 2 3 4;
#X msg 40 220 0;
#X msg 90 220 3;
#X msg 140 220 5;
#X msg 190 220 7;
#X msg 240 220 10;
#X obj 40 270 + 48;
#X floatatom 170 270 7 0 0 0 - - - 0;
#X obj 330 180 random 2;
#X obj 330 220 * 12;
#X obj 40 320 +;
#X obj 40 360 mtof;
#X obj 40 410 osc~;
#X obj 150 360 * 1.006;
#X obj 150 410 osc~;
#X obj 40 460 +~;
#X msg 320 410 1 1500 \, 0 6000 1500;
#X obj 320 450 vline~;
#X obj 40 500 *~;
#X obj 40 540 lop~ 1800;
#X floatatom 170 540 7 0 0 0 - - - 0;
#X obj 40 640 *~ 0.35;
#X obj 160 640 *~ 0.35;
#X obj 40 690 dac~;
#X text 430 50 tempo (ms between notes);
#X text 430 270 base note (MIDI \, 48 = C3);
#X text 430 540 filter cutoff (Hz);
#X text 430 110 AMBIENT generative sketch — mirrors the firmware idea:;
#X text 430 130 slow metro -> random pentatonic note -> 2 detuned saws;
#X text 430 150 -> long swell (vline~) -> lowpass -> big reverb.;
#X text 430 185 Plays on open (loadbang). Tune the 3 number boxes by ear \,;
#X text 430 205 then port good values to src/modes/generative_mode.h.;
#X text 430 250 Mono here;
#X obj 40 590 rev3~ 90 3000 2000;
#X connect 0 0 1 0;
#X connect 1 0 3 0;
#X connect 1 0 12 0;
#X connect 1 0 20 0;
#X connect 2 0 1 1;
#X connect 3 0 4 0;
#X connect 4 0 5 0;
#X connect 4 1 6 0;
#X connect 4 2 7 0;
#X connect 4 3 8 0;
#X connect 4 4 9 0;
#X connect 5 0 10 0;
#X connect 6 0 10 0;
#X connect 7 0 10 0;
#X connect 8 0 10 0;
#X connect 9 0 10 0;
#X connect 10 0 14 0;
#X connect 11 0 10 1;
#X connect 12 0 13 0;
#X connect 13 0 14 1;
#X connect 14 0 15 0;
#X connect 15 0 16 0;
#X connect 15 0 17 0;
#X connect 16 0 19 0;
#X connect 17 0 18 0;
#X connect 18 0 19 1;
#X connect 19 0 22 0;
#X connect 20 0 21 0;
#X connect 21 0 22 1;
#X connect 22 0 23 0;
#X connect 23 0 25 0;
#X connect 23 0 26 0;
#X connect 23 0 37 0;
#X connect 23 0 37 1;
#X connect 24 0 23 1;
#X connect 25 0 27 0;
#X connect 26 0 27 1;
#X connect 37 0 25 0;
#X connect 37 1 26 0;
