#N canvas 40 40 760 620 12;
#X text 20 14 KRELL -- generative voice (Pd prototype of src/modes/generative_mode.h);
#X text 20 32 Self-clocking random timing + random pitch + random AD envelope + LFO-swept filter.;
#X text 20 50 1) Click "audio ON". 2) Turn the toggle ON. 3) Tweak the number boxes.;
#X obj 20 100 tgl 20 0 empty empty empty 0 -6 0 8 -262144 -1 -1 0 1;
#X text 48 102 <- generative ON / OFF;
#X obj 20 140 sel 1;
#X obj 20 172 del 200;
#X obj 20 206 t b b b;
#X obj 170 250 random 400;
#X obj 170 282 + 60;
#X obj 100 172 spigot;
#X floatatom 300 282 5 0 0 0 - - -;
#X text 300 264 min interval ms;
#X obj 60 250 t b b;
#X obj 60 290 random 25;
#X obj 60 322 + 48;
#X obj 60 354 mtof;
#X obj 60 386 osc~;
#X msg 230 322 1 5 \, 0 300 5;
#X obj 230 362 vline~;
#X obj 60 426 *~;
#X obj 380 354 osc~ 0.2;
#X obj 380 386 *~ 600;
#X obj 380 418 +~ 900;
#X obj 60 470 vcf~;
#X obj 60 512 *~ 0.3;
#X obj 60 552 dac~;
#X floatatom 185 290 5 0 0 0 - - -;
#X text 245 290 pitch range (semitones);
#X floatatom 185 322 5 0 0 0 - - -;
#X text 245 322 pitch base (MIDI note);
#X floatatom 185 470 5 0 0 0 - - -;
#X text 245 470 filter Q;
#X msg 430 100 \; pd dsp 1;
#X text 510 102 click: audio ON;
#X msg 430 128 \; pd dsp 0;
#X text 510 130 click: audio OFF;
#X text 380 326 LFO -> filter cutoff sweep;
#X connect 3 0 5 0;
#X connect 3 0 10 1;
#X connect 5 0 6 0;
#X connect 6 0 7 0;
#X connect 7 2 8 0;
#X connect 8 0 9 0;
#X connect 9 0 6 1;
#X connect 7 0 10 0;
#X connect 10 0 6 0;
#X connect 11 0 9 1;
#X connect 7 1 13 0;
#X connect 13 1 14 0;
#X connect 14 0 15 0;
#X connect 15 0 16 0;
#X connect 16 0 17 0;
#X connect 13 0 18 0;
#X connect 18 0 19 0;
#X connect 17 0 20 0;
#X connect 19 0 20 1;
#X connect 20 0 24 0;
#X connect 21 0 22 0;
#X connect 22 0 23 0;
#X connect 23 0 24 1;
#X connect 24 0 25 0;
#X connect 25 0 26 0;
#X connect 25 0 26 1;
#X connect 27 0 14 1;
#X connect 29 0 15 1;
#X connect 31 0 24 2;
