#N canvas 50 50 720 600 12;
#X text 18 14 SYNTH + REVERB -- Pd prototype of synth_mode.h into the global reverb FX.;
#X text 18 32 Play a MIDI controller (notein) OR use the TEST toggle. Click "audio ON" first.;
#X text 18 50 Saw osc -> lowpass (cutoff) -> AR envelope -> rev3~ reverb (wet/dry mix).;
#X obj 30 96 notein;
#X obj 30 130 mtof;
#X obj 30 188 phasor~;
#X obj 30 218 -~ 0.5;
#X obj 30 252 lop~ 2000;
#X obj 30 300 *~;
#X obj 165 130 moses 1;
#X msg 165 168 1 8;
#X msg 245 168 0 200;
#X obj 165 210 vline~;
#X obj 30 348 rev3~ 0 85 3000 30;
#X obj 30 396 *~;
#X obj 96 396 *~;
#X obj 175 348 *~ 0.7;
#X obj 30 446 +~;
#X obj 96 446 +~;
#X obj 30 492 dac~;
#X floatatom 250 252 5 0 0 0 - - -;
#X text 312 252 cutoff Hz;
#X floatatom 250 396 5 0 0 0 - - -;
#X text 312 396 reverb amount (0-1);
#X floatatom 250 348 5 0 0 0 - - -;
#X text 312 348 liveness (0-100);
#X obj 500 96 tgl 20 0 empty empty empty 0 -6 0 8 -262144 -1 -1 0 1;
#X text 528 98 TEST note on/off;
#X obj 500 134 sel 1 0;
#X floatatom 500 176 5 0 0 0 - - -;
#X text 560 176 test freq (Hz);
#X msg 500 232 \; pd dsp 1;
#X text 588 234 audio ON;
#X msg 500 262 \; pd dsp 0;
#X text 588 264 audio OFF;
#X connect 3 0 4 0;
#X connect 4 0 5 0;
#X connect 29 0 5 0;
#X connect 5 0 6 0;
#X connect 6 0 7 0;
#X connect 20 0 7 1;
#X connect 7 0 8 0;
#X connect 12 0 8 1;
#X connect 3 1 9 0;
#X connect 9 1 10 0;
#X connect 9 0 11 0;
#X connect 26 0 28 0;
#X connect 28 0 10 0;
#X connect 28 1 11 0;
#X connect 10 0 12 0;
#X connect 11 0 12 0;
#X connect 8 0 13 0;
#X connect 8 0 13 1;
#X connect 24 0 13 3;
#X connect 13 0 14 0;
#X connect 13 1 15 0;
#X connect 22 0 14 1;
#X connect 22 0 15 1;
#X connect 8 0 16 0;
#X connect 16 0 17 0;
#X connect 14 0 17 1;
#X connect 16 0 18 0;
#X connect 15 0 18 1;
#X connect 17 0 19 0;
#X connect 18 0 19 1;
